# xmcd
#
# Track frame offsets:
#	150
#	16513
#	35175
#
# Disc length: 666 seconds
#
# Revision: 0
# Processed by: cddbd v1.5.1PL0 Copyright (c) Steve Scherf et al.
# Submitted via: audiograbber 1.83.01
#
DISCID=19029803
DTITLE=John Hiatt - Beneath This Gruff Exterior Demos
DYEAR=2003
DGENRE=AltCountry
TTITLE0=Uncommon Connection (Demo)
TTITLE1=Missing Pieces (Demo)
TTITLE2=Almost Fed Up With The Blues (Demo)
EXTD=
EXTT0=
EXTT1=
EXTT2=
PLAYORDER=
